<svg xmlns="http://www.w3.org/2000/svg" xmlns:xlink="http://www.w3.org/1999/xlink" width="794" zoomAndPan="magnify" viewBox="0 0 595.5 595.499986" height="794" preserveAspectRatio="xMidYMid meet" version="1.0"><defs><clipPath id="c4cd81dafa"><path d="M 0 0.746094 L 595 0.746094 L 595 520.257812 L 0 520.257812 Z M 0 0.746094 " clip-rule="nonzero"/></clipPath><clipPath id="387fe82dee"><rect x="0" width="595" y="0" height="522"/></clipPath></defs><g transform="matrix(1, 0, 0, 1, 0, 47)"><g clip-path="url(#387fe82dee)"><g clip-path="url(#c4cd81dafa)"><path fill="#fefefe" d="M -42.425781 0.75 L 603.027344 0.75 L 603.027344 520.257812 L -42.425781 520.257812 Z M -42.425781 0.75 " fill-opacity="1" fill-rule="nonzero"/></g><path fill="#5e4b21" d="M 283.296875 254.507812 C 284.457031 254.371094 284.457031 254.371094 285.929688 254.355469 L 287.597656 254.332031 L 289.417969 254.324219 C 290.039062 254.316406 290.660156 254.3125 291.296875 254.308594 C 292.617188 254.300781 293.9375 254.296875 295.257812 254.296875 C 297.25 254.292969 299.242188 254.265625 301.230469 254.238281 C 308.855469 254.191406 316 254.332031 322.917969 257.84375 C 324.292969 258.644531 325.515625 259.515625 326.761719 260.503906 L 328.046875 261.515625 C 333.84375 266.417969 337.511719 272.546875 340.375 279.503906 C 343.566406 288.585938 342.898438 298.992188 342.878906 308.472656 L 342.882812 312.273438 C 342.882812 315.238281 342.882812 318.203125 342.875 321.167969 C 342.871094 323.871094 342.875 326.574219 342.878906 329.273438 C 342.882812 332.214844 342.886719 335.160156 342.882812 338.101562 C 342.878906 339.34375 342.882812 340.589844 342.882812 341.832031 C 342.886719 343.5625 342.882812 345.292969 342.878906 347.023438 L 342.882812 348.574219 L 342.875 350.003906 L 342.875 351.242188 C 342.726562 352.617188 342.359375 353.671875 341.75 354.914062 C 340.363281 355.605469 339.234375 355.476562 337.683594 355.476562 L 335.6875 355.480469 L 333.472656 355.480469 L 331.140625 355.484375 C 328.992188 355.484375 326.84375 355.488281 324.699219 355.484375 C 322.386719 355.484375 320.074219 355.488281 317.761719 355.492188 C 313.226562 355.496094 308.695312 355.496094 304.160156 355.496094 C 300.476562 355.496094 296.792969 355.496094 293.109375 355.5 C 282.675781 355.503906 272.242188 355.507812 261.808594 355.503906 L 258.394531 355.503906 C 249.257812 355.507812 240.121094 355.511719 230.980469 355.515625 C 221.609375 355.523438 212.234375 355.527344 202.859375 355.527344 C 197.59375 355.527344 192.328125 355.53125 187.0625 355.535156 C 182.578125 355.539062 178.097656 355.539062 173.613281 355.535156 C 171.324219 355.535156 169.035156 355.535156 166.746094 355.539062 C 164.652344 355.542969 162.558594 355.542969 160.464844 355.539062 C 159.707031 355.535156 158.945312 355.539062 158.1875 355.539062 C 157.160156 355.542969 156.132812 355.542969 155.101562 355.539062 L 153.367188 355.539062 C 151.910156 355.414062 151.910156 355.414062 150.742188 355 L 149.910156 354.414062 C 149.371094 352.789062 149.332031 351.566406 149.308594 349.855469 L 149.28125 347.949219 C 149.269531 347.261719 149.261719 346.570312 149.253906 345.882812 L 149.222656 343.773438 C 149.195312 341.925781 149.171875 340.074219 149.144531 338.222656 C 149.121094 336.335938 149.09375 334.445312 149.066406 332.558594 C 149.011719 328.855469 148.960938 325.148438 148.914062 321.445312 C 145.078125 321.433594 141.246094 321.421875 137.414062 321.417969 C 136.109375 321.414062 134.804688 321.410156 133.5 321.40625 C 131.628906 321.402344 129.757812 321.398438 127.886719 321.394531 L 126.105469 321.386719 L 123.019531 321.386719 L 121.933594 321.445312 L 121.4375 321.945312 C 121.382812 322.625 121.355469 323.308594 121.347656 323.988281 L 121.328125 325.3125 L 121.3125 326.761719 L 121.261719 329.820312 C 121.238281 331.425781 121.21875 333.027344 121.199219 334.628906 C 121.015625 348.628906 120.097656 360.773438 112.96875 373.144531 C 108.191406 380.664062 101.535156 386.796875 93.960938 391.378906 L 92.796875 392.15625 C 86.1875 396.480469 77.3125 398.898438 69.480469 399.371094 L 67.960938 399.46875 C 57.996094 399.796875 47.566406 397.3125 38.722656 392.734375 C 30.105469 388.003906 22.984375 381.339844 17.734375 373.015625 C 13.148438 365.300781 9.742188 355.128906 9.496094 346.109375 C 9.488281 344.597656 9.5 343.082031 9.515625 341.570312 L 9.535156 338.089844 C 9.546875 336.292969 9.5625 334.492188 9.578125 332.695312 C 9.695312 319.484375 8.820312 307.085938 5.46875 294.296875 C 4.605469 290.660156 4.457031 287.199219 4.472656 283.480469 L 4.476562 281.949219 C 4.5 277.964844 4.546875 273.953125 5.035156 269.992188 L 5.535156 269.492188 C 6.28125 269.445312 7.027344 269.421875 7.777344 269.421875 L 9.222656 269.410156 L 10.792969 269.410156 L 12.398438 269.40625 C 13.519531 269.402344 14.640625 269.402344 15.761719 269.402344 C 17.484375 269.402344 19.207031 269.390625 20.925781 269.382812 C 22.015625 269.378906 23.101562 269.378906 24.1875 269.378906 L 25.757812 269.367188 L 27.207031 269.375 L 28.488281 269.371094 L 29.515625 269.492188 L 30.511719 270.492188 C 30.597656 271.789062 30.628906 273.039062 30.613281 274.335938 C 30.621094 275.136719 30.625 275.9375 30.632812 276.734375 C 30.636719 277.988281 30.636719 279.242188 30.628906 280.492188 C 30.589844 286.628906 31.335938 291.886719 34.011719 297.46875 C 36.421875 300.859375 39.117188 303.34375 42.898438 305.113281 C 46.109375 306.546875 46.109375 306.546875 49.527344 307.269531 C 50.996094 307.457031 50.996094 307.457031 51.824219 308.070312 C 52.496094 308.957031 52.496094 308.957031 52.683594 310.039062 L 52.6875 311.3125 L 52.703125 312.757812 L 52.691406 314.3125 L 52.699219 315.910156 C 52.699219 317.027344 52.695312 318.144531 52.691406 319.257812 C 52.683594 320.972656 52.6875 322.683594 52.699219 324.394531 C 52.699219 325.480469 52.695312 326.5625 52.691406 327.644531 L 52.703125 329.203125 L 52.6875 330.644531 L 52.683594 331.914062 L 52.496094 332.933594 C 50.996094 333.933594 50.996094 333.933594 49.371094 334.089844 C 44.863281 333.980469 40.3125 332.707031 36.007812 331.4375 C 35.835938 340.804688 36.195312 349.722656 40.175781 358.367188 C 42.640625 362.785156 46.382812 366.304688 50.554688 369.113281 C 54.6875 371.367188 59.507812 372.820312 64.210938 372.941406 C 70.210938 372.699219 75.894531 371.46875 81.136719 368.4375 C 82.484375 367.488281 83.730469 366.492188 84.96875 365.402344 L 85.933594 364.632812 C 87.964844 362.867188 89.285156 360.707031 90.585938 358.378906 L 91.085938 357.515625 C 93.78125 352.414062 94.183594 346.535156 94.152344 340.871094 L 94.160156 339.015625 C 94.164062 337.699219 94.167969 336.386719 94.164062 335.070312 C 94.160156 332.988281 94.167969 330.910156 94.179688 328.828125 C 94.199219 324.046875 94.203125 319.261719 94.210938 314.480469 C 94.214844 310.078125 94.222656 305.671875 94.246094 301.269531 C 94.253906 299.203125 94.253906 297.132812 94.253906 295.066406 C 94.25 293.480469 94.257812 291.898438 94.265625 290.316406 L 94.257812 288.582031 L 94.269531 287.003906 L 94.269531 285.628906 C 94.457031 284.480469 94.457031 284.480469 95.148438 283.585938 C 95.957031 282.980469 95.957031 282.980469 97.066406 282.800781 L 98.375 282.8125 L 99.859375 282.8125 L 101.457031 282.835938 L 103.097656 282.839844 C 104.828125 282.851562 106.5625 282.867188 108.292969 282.886719 C 109.464844 282.894531 110.636719 282.902344 111.808594 282.910156 C 114.683594 282.925781 117.5625 282.949219 120.4375 282.980469 C 121.378906 284.863281 120.953125 287.289062 120.917969 289.371094 C 120.898438 291.039062 120.90625 292.378906 121.4375 293.972656 C 122.4375 294.691406 122.4375 294.691406 123.933594 294.96875 C 124.703125 294.917969 125.472656 294.847656 126.238281 294.75 C 128.683594 294.480469 131.085938 294.386719 133.539062 294.375 L 134.84375 294.363281 C 136.246094 294.351562 137.652344 294.339844 139.054688 294.335938 L 140.519531 294.324219 C 143.066406 294.3125 145.617188 294.300781 148.167969 294.296875 C 150.269531 294.289062 152.375 294.273438 154.480469 294.253906 C 157.035156 294.230469 159.585938 294.21875 162.136719 294.214844 C 163.105469 294.210938 164.078125 294.203125 165.046875 294.191406 C 166.398438 294.175781 167.753906 294.175781 169.105469 294.179688 L 170.316406 294.152344 C 171.4375 294.167969 171.4375 294.167969 173.390625 294.46875 C 174.890625 295.539062 174.890625 295.539062 175.890625 296.96875 C 176.191406 298.464844 176.191406 298.464844 176.175781 300.140625 L 176.171875 302.050781 L 176.132812 304.097656 C 176.128906 304.796875 176.125 305.5 176.125 306.203125 C 176.113281 308.042969 176.089844 309.886719 176.0625 311.726562 C 176.035156 313.609375 176.023438 315.492188 176.011719 317.375 C 175.984375 321.0625 175.941406 324.75 175.890625 328.4375 C 181.019531 328.449219 186.148438 328.457031 191.277344 328.464844 C 193.65625 328.464844 196.039062 328.46875 198.417969 328.476562 C 200.714844 328.480469 203.011719 328.484375 205.308594 328.484375 C 206.1875 328.488281 207.0625 328.488281 207.941406 328.492188 C 209.167969 328.496094 210.394531 328.496094 211.621094 328.496094 L 212.726562 328.5 C 214.605469 328.527344 214.605469 328.527344 216.355469 327.9375 L 216.371094 326.277344 C 216.421875 321.117188 216.472656 315.957031 216.523438 310.796875 C 216.554688 308.144531 216.578125 305.488281 216.605469 302.835938 C 216.628906 300.277344 216.652344 297.71875 216.683594 295.160156 C 216.691406 294.183594 216.703125 293.203125 216.710938 292.226562 C 216.722656 290.859375 216.738281 289.496094 216.753906 288.128906 L 216.761719 286.894531 C 216.796875 284.09375 216.796875 284.09375 217.355469 282.980469 C 220.832031 282.96875 224.308594 282.960938 227.785156 282.953125 C 228.96875 282.953125 230.152344 282.949219 231.339844 282.945312 C 233.035156 282.9375 234.734375 282.933594 236.429688 282.933594 L 238.046875 282.925781 L 239.53125 282.925781 L 240.84375 282.921875 L 241.835938 282.980469 L 242.332031 283.480469 C 242.394531 284.878906 242.425781 286.265625 242.4375 287.664062 L 242.449219 289.015625 C 242.464844 290.464844 242.480469 291.914062 242.492188 293.363281 L 242.519531 296.039062 C 242.554688 299.355469 242.582031 302.675781 242.613281 305.992188 L 242.832031 328.4375 L 316.269531 328.4375 L 316.144531 310.363281 L 316.121094 304.691406 C 316.105469 302.988281 316.105469 302.988281 316.085938 301.285156 C 316.078125 300.535156 316.074219 299.789062 316.074219 299.039062 C 316.070312 294.089844 315.78125 289.605469 313.773438 284.980469 C 312.691406 283.410156 311.363281 282.539062 309.777344 281.484375 C 306.652344 280.941406 303.542969 280.886719 300.378906 280.84375 L 297.285156 280.785156 C 295.667969 280.757812 294.050781 280.734375 292.433594 280.707031 C 290.867188 280.679688 289.300781 280.652344 287.734375 280.625 L 286.257812 280.605469 L 284.902344 280.578125 L 283.703125 280.558594 L 282.796875 280.484375 L 282.300781 279.984375 C 282.25 279.222656 282.226562 278.460938 282.226562 277.695312 L 282.214844 276.222656 L 282.214844 274.617188 L 282.210938 272.980469 C 282.207031 271.835938 282.207031 270.6875 282.207031 269.542969 C 282.207031 267.785156 282.195312 266.027344 282.1875 264.273438 C 282.183594 263.160156 282.183594 262.050781 282.183594 260.941406 L 282.171875 259.339844 L 282.179688 257.859375 L 282.175781 256.554688 L 282.300781 255.507812 Z M 162.582031 56.660156 C 188.699219 56.371094 216.421875 56.246094 240.398438 67.902344 L 241.335938 68.355469 C 249.460938 72.308594 257.039062 77.171875 263.816406 83.171875 L 265.003906 84.195312 C 270.570312 89.082031 275.753906 94.308594 280.300781 100.152344 C 280.789062 100.746094 281.28125 101.335938 281.773438 101.925781 C 292.609375 115.195312 300.171875 132.910156 302.96875 149.792969 C 303.28125 151.726562 303.539062 153.660156 303.78125 155.601562 L 304.039062 157.542969 C 304.941406 164.769531 305.03125 172.015625 305.140625 179.289062 C 305.160156 180.640625 305.1875 181.988281 305.21875 183.339844 C 305.25 184.980469 305.277344 186.617188 305.304688 188.257812 L 305.34375 190.058594 C 305.4375 198.003906 305.4375 198.003906 304.28125 201.058594 C 303.175781 201.964844 303.175781 201.964844 301.78125 202.558594 C 300.375 202.746094 300.375 202.746094 298.816406 202.75 L 297.042969 202.765625 L 295.144531 202.757812 L 293.183594 202.761719 C 291.816406 202.761719 290.449219 202.761719 289.082031 202.753906 C 287.332031 202.746094 285.582031 202.75 283.832031 202.757812 C 282.160156 202.765625 280.484375 202.761719 278.8125 202.757812 L 276.90625 202.765625 L 275.144531 202.75 L 273.589844 202.746094 C 272.308594 202.558594 272.308594 202.558594 271.398438 201.863281 C 270.808594 201.058594 270.808594 201.058594 270.53125 200.003906 L 270.40625 198.792969 L 270.246094 197.449219 L 270.089844 196.03125 C 269.613281 192.289062 269.128906 188.933594 267.3125 185.574219 L 266.566406 184.125 C 264.847656 180.980469 262.890625 178.351562 260.421875 175.757812 C 259.320312 174.582031 259.320312 174.582031 258.152344 173.082031 C 256.769531 171.414062 255.1875 170.382812 253.324219 169.308594 L 252.328125 168.726562 C 244.945312 164.515625 237.355469 162.863281 228.910156 162.898438 C 228.183594 162.898438 227.453125 162.894531 226.726562 162.890625 C 224.746094 162.882812 222.761719 162.882812 220.78125 162.886719 C 218.636719 162.886719 216.492188 162.878906 214.351562 162.875 C 210.640625 162.863281 206.933594 162.859375 203.222656 162.859375 C 197.859375 162.859375 192.496094 162.847656 187.132812 162.835938 C 178.425781 162.816406 169.71875 162.800781 161.011719 162.796875 C 152.5625 162.789062 144.113281 162.777344 135.660156 162.765625 L 134.082031 162.761719 C 128.394531 162.753906 122.707031 162.742188 117.019531 162.734375 L 115.507812 162.730469 L 109.519531 162.71875 C 103.671875 162.707031 97.824219 162.699219 91.976562 162.695312 C 88.316406 162.691406 84.652344 162.6875 80.992188 162.679688 C 78.875 162.675781 76.761719 162.671875 74.644531 162.671875 C 72.710938 162.671875 70.777344 162.671875 68.84375 162.667969 C 68.144531 162.664062 67.441406 162.664062 66.742188 162.664062 C 65.792969 162.664062 64.84375 162.664062 63.890625 162.660156 L 62.289062 162.660156 C 60.988281 162.59375 60.988281 162.59375 59.488281 162.09375 C 58.820312 160.757812 58.914062 159.710938 58.902344 158.210938 L 58.882812 156.375 L 58.871094 154.386719 L 58.863281 153.375 C 58.855469 151.613281 58.847656 149.847656 58.839844 148.085938 C 58.835938 146.261719 58.820312 144.4375 58.800781 142.617188 C 58.785156 141.214844 58.78125 139.8125 58.78125 138.414062 C 58.777344 137.414062 58.761719 136.414062 58.75 135.414062 L 58.753906 133.578125 L 58.746094 131.957031 L 58.988281 130.625 C 59.820312 129.804688 59.820312 129.804688 60.988281 129.125 C 62.332031 128.9375 62.332031 128.9375 63.910156 128.9375 L 65.730469 128.929688 L 67.730469 128.941406 L 69.855469 128.933594 C 71.808594 128.929688 73.757812 128.933594 75.707031 128.9375 C 77.808594 128.941406 79.910156 128.9375 82.011719 128.933594 C 86.136719 128.929688 90.257812 128.933594 94.378906 128.941406 C 99.1875 128.945312 103.996094 128.945312 108.804688 128.945312 C 117.390625 128.945312 125.980469 128.949219 134.570312 128.957031 C 142.886719 128.96875 151.203125 128.972656 159.519531 128.96875 C 170.03125 128.964844 180.542969 128.964844 191.058594 128.972656 C 194.398438 128.976562 197.738281 128.976562 201.082031 128.976562 C 205.167969 128.972656 209.253906 128.976562 213.339844 128.984375 C 215.421875 128.988281 217.503906 128.988281 219.582031 128.988281 C 243.375 128.964844 243.375 128.964844 251.699219 131.5625 L 253.066406 131.960938 C 256.195312 132.886719 259.28125 133.914062 262.316406 135.121094 C 258.191406 127.230469 253.429688 120.628906 247.328125 114.140625 L 246.425781 113.140625 C 243.53125 110.058594 240.125 107.675781 236.683594 105.25 C 236.003906 104.765625 235.324219 104.273438 234.652344 103.773438 C 226.914062 98.238281 216.90625 94.816406 207.644531 93.003906 L 206.511719 92.78125 C 197.023438 91.101562 187.484375 91.03125 177.882812 91.09375 C 176.109375 91.105469 174.339844 91.109375 172.570312 91.113281 C 168.097656 91.121094 163.625 91.140625 159.152344 91.164062 C 154.296875 91.183594 149.4375 91.207031 144.578125 91.214844 C 142.476562 91.222656 140.378906 91.230469 138.28125 91.246094 C 136.675781 91.253906 135.070312 91.257812 133.464844 91.261719 L 131.714844 91.277344 L 130.105469 91.277344 L 128.714844 91.28125 C 127.300781 91.148438 126.222656 90.75 124.933594 90.164062 C 124.898438 86.011719 124.871094 81.863281 124.855469 77.710938 C 124.847656 75.78125 124.835938 73.855469 124.820312 71.929688 C 124.804688 70.070312 124.796875 68.210938 124.789062 66.351562 C 124.789062 65.640625 124.78125 64.929688 124.773438 64.21875 C 124.765625 63.226562 124.761719 62.234375 124.761719 61.242188 L 124.753906 59.527344 L 124.933594 58.195312 C 126.433594 57.195312 126.433594 57.195312 127.730469 57.054688 L 129.3125 57.035156 L 131.117188 57.003906 L 133.089844 56.988281 L 135.136719 56.957031 C 136.964844 56.933594 138.792969 56.910156 140.625 56.894531 C 142.144531 56.878906 143.664062 56.859375 145.183594 56.839844 C 148.925781 56.796875 152.667969 56.757812 156.410156 56.722656 C 158.46875 56.703125 160.523438 56.683594 162.582031 56.660156 " fill-opacity="1" fill-rule="nonzero"/><path fill="#bf9d75" d="M 402.585938 56.671875 L 403.652344 56.675781 C 411.894531 56.679688 420.136719 56.75 428.378906 56.855469 C 430.015625 56.875 431.65625 56.890625 433.292969 56.90625 C 435.316406 56.925781 437.34375 56.949219 439.367188 56.972656 C 440.125 56.984375 440.886719 56.992188 441.644531 56.996094 C 442.691406 57.003906 443.742188 57.019531 444.789062 57.035156 L 446.585938 57.054688 C 448.136719 57.191406 449.253906 57.53125 450.65625 58.195312 C 451.308594 64.25 451.148438 70.28125 451.007812 76.359375 C 450.96875 78.101562 450.933594 79.839844 450.902344 81.582031 L 450.832031 84.898438 L 450.800781 86.480469 L 450.765625 87.925781 C 450.757812 88.347656 450.746094 88.769531 450.738281 89.203125 L 450.65625 90.164062 L 450.15625 90.664062 C 448.53125 90.859375 446.890625 90.882812 445.257812 90.945312 L 443.609375 91.007812 C 433.796875 91.339844 423.96875 91.191406 414.152344 91.15625 C 399.320312 91.09375 399.320312 91.09375 384.496094 91.363281 L 382.695312 91.414062 C 368.859375 91.910156 355.121094 94.921875 343.242188 102.277344 C 332.4375 109.175781 324.277344 117.890625 316.875 128.277344 C 316.304688 129.078125 315.726562 129.871094 315.140625 130.664062 C 314.226562 132.199219 313.941406 133.355469 313.773438 135.121094 L 314.875 134.664062 C 328.164062 129.332031 341.058594 128.972656 355.207031 128.996094 C 357.347656 129 359.488281 128.996094 361.628906 128.992188 C 365.804688 128.988281 369.980469 128.988281 374.160156 128.992188 C 377.554688 128.992188 380.945312 128.996094 384.339844 128.992188 L 388.765625 128.992188 C 397.972656 128.988281 407.175781 128.992188 416.382812 128.996094 C 424.28125 129 432.183594 129 440.082031 128.996094 C 450.734375 128.988281 461.386719 128.988281 472.039062 128.992188 C 475.433594 128.996094 478.828125 128.992188 482.222656 128.992188 C 486.351562 128.988281 490.480469 128.988281 494.609375 128.992188 C 496.714844 128.996094 498.824219 128.996094 500.929688 128.992188 C 502.855469 128.992188 504.785156 128.992188 506.710938 129 C 507.410156 129 508.105469 129 508.804688 128.996094 C 509.753906 128.992188 510.699219 128.996094 511.644531 129 L 513.242188 129 C 514.625 129.128906 515.445312 129.367188 516.601562 130.125 C 517.125 131.453125 517.164062 132.722656 517.164062 134.140625 L 517.167969 135.332031 L 517.164062 136.609375 L 517.167969 137.953125 C 517.167969 138.890625 517.167969 139.832031 517.164062 140.773438 C 517.160156 142.179688 517.164062 143.589844 517.167969 144.996094 C 517.171875 149.324219 517.128906 153.648438 516.941406 157.96875 L 516.90625 159.042969 C 516.851562 160.023438 516.851562 160.023438 516.601562 161.597656 C 515.101562 162.59375 515.101562 162.59375 513.804688 162.71875 L 512.210938 162.71875 L 510.375 162.726562 L 508.34375 162.722656 C 507.628906 162.722656 506.910156 162.722656 506.195312 162.726562 C 504.222656 162.730469 502.25 162.726562 500.277344 162.722656 C 498.152344 162.722656 496.023438 162.726562 493.898438 162.726562 C 490.210938 162.730469 486.523438 162.734375 482.835938 162.730469 C 477.496094 162.730469 472.152344 162.738281 466.8125 162.746094 C 450.246094 162.769531 433.683594 162.78125 417.117188 162.785156 L 413.984375 162.785156 C 405.347656 162.789062 396.710938 162.796875 388.078125 162.8125 C 382.753906 162.824219 377.429688 162.824219 372.109375 162.820312 C 368.453125 162.816406 364.800781 162.820312 361.144531 162.832031 C 359.039062 162.835938 356.9375 162.835938 354.832031 162.832031 C 344.0625 162.800781 334.046875 162.972656 324.261719 168.089844 C 322.5 169.148438 320.878906 170.308594 319.269531 171.585938 L 318.121094 172.449219 C 312.300781 177.15625 309.125 184.539062 305.777344 191.066406 L 304.78125 190.570312 L 304.769531 189.6875 C 304.722656 170.832031 304.722656 170.832031 302.78125 152.105469 L 302.414062 149.515625 C 300.414062 136.523438 295.210938 123.328125 288.175781 112.222656 L 287.792969 111.144531 C 288.308594 108.972656 289.601562 107.558594 291.042969 105.898438 C 292.820312 103.828125 294.503906 101.722656 296.132812 99.53125 C 298.136719 96.871094 300.320312 94.40625 302.59375 91.972656 L 303.515625 90.984375 C 305.652344 88.730469 307.917969 86.6875 310.277344 84.667969 L 311.554688 83.515625 C 318.726562 77.253906 327.109375 71.703125 335.753906 67.683594 L 336.816406 67.1875 C 342.949219 64.363281 349.195312 62.328125 355.738281 60.691406 L 356.875 60.394531 C 365.78125 58.125 375.074219 57.796875 384.210938 57.195312 L 385.855469 57.082031 C 391.433594 56.722656 397 56.667969 402.589844 56.671875 " fill-opacity="1" fill-rule="nonzero"/><path fill="#5e4b21" d="M 499.871094 230.933594 L 501.25 230.910156 C 503.324219 230.886719 505.394531 230.867188 507.464844 230.855469 C 508.558594 230.847656 509.652344 230.832031 510.746094 230.816406 C 512.324219 230.789062 513.898438 230.777344 515.476562 230.769531 L 516.960938 230.734375 L 518.339844 230.738281 L 519.554688 230.726562 L 520.597656 231.03125 C 521.398438 231.984375 521.398438 231.984375 522.09375 233.527344 C 522.3125 235.199219 522.289062 236.859375 522.273438 238.539062 L 522.277344 240.082031 C 522.277344 241.789062 522.269531 243.5 522.257812 245.207031 L 522.257812 248.875 C 522.253906 251.855469 522.246094 254.832031 522.234375 257.8125 C 522.21875 260.929688 522.210938 264.046875 522.203125 267.164062 L 522.199219 268.214844 C 522.183594 274.777344 522.15625 281.335938 522.128906 287.898438 C 522.101562 293.902344 522.085938 299.910156 522.078125 305.914062 C 522.070312 312.078125 522.054688 318.242188 522.027344 324.410156 C 522.011719 327.871094 522 331.332031 522 334.792969 C 521.996094 338.046875 521.980469 341.300781 521.957031 344.550781 C 521.953125 345.75 521.949219 346.945312 521.953125 348.140625 C 521.953125 349.769531 521.941406 351.398438 521.925781 353.023438 C 521.929688 353.503906 521.933594 353.980469 521.9375 354.472656 C 521.917969 355.671875 521.875 356.746094 521.59375 357.910156 C 520.5 358.953125 520.5 358.953125 519.097656 359.410156 C 517.765625 359.59375 517.765625 359.59375 516.308594 359.585938 L 514.625 359.589844 L 512.792969 359.570312 L 510.851562 359.570312 C 509.460938 359.566406 508.070312 359.5625 506.683594 359.550781 C 504.484375 359.535156 502.285156 359.53125 500.089844 359.527344 C 496.613281 359.519531 493.136719 359.507812 489.660156 359.488281 C 483.433594 359.457031 477.207031 359.4375 470.980469 359.421875 C 468.796875 359.417969 466.613281 359.40625 464.425781 359.394531 C 463.394531 359.390625 462.363281 359.386719 461.332031 359.382812 C 460.074219 359.378906 458.816406 359.371094 457.558594 359.363281 L 455.882812 359.359375 L 454.421875 359.351562 C 453.257812 359.40625 452.269531 359.578125 451.15625 359.910156 L 451.148438 360.871094 C 451.113281 364.160156 451.074219 367.449219 451.023438 370.738281 C 451.007812 371.96875 450.992188 373.195312 450.984375 374.425781 C 450.964844 376.1875 450.941406 377.949219 450.910156 379.714844 L 450.902344 381.386719 L 450.871094 382.933594 L 450.855469 384.296875 L 450.65625 385.382812 C 449.15625 386.382812 449.15625 386.382812 448.113281 386.511719 L 446.902344 386.511719 L 445.523438 386.523438 L 444.035156 386.515625 L 442.507812 386.519531 C 441.441406 386.519531 440.375 386.519531 439.308594 386.515625 C 437.671875 386.507812 436.039062 386.515625 434.40625 386.519531 C 433.367188 386.519531 432.332031 386.519531 431.296875 386.515625 L 429.8125 386.523438 L 428.433594 386.511719 L 427.21875 386.511719 C 426.175781 386.382812 426.175781 386.382812 424.679688 385.382812 C 424.480469 384.316406 424.480469 384.316406 424.460938 382.976562 L 424.433594 381.464844 L 424.421875 379.824219 L 424.394531 378.148438 C 424.367188 376.375 424.351562 374.605469 424.335938 372.832031 C 424.316406 371.636719 424.300781 370.4375 424.28125 369.238281 C 424.242188 366.292969 424.207031 363.351562 424.179688 360.40625 C 422.351562 359.414062 421.117188 359.304688 419.023438 359.347656 L 417.132812 359.371094 L 416.136719 359.390625 C 405.058594 359.585938 394.582031 358.875 384.617188 353.523438 C 380.621094 351.265625 376.988281 348.613281 374.222656 344.921875 L 373.042969 343.765625 C 369.515625 340.183594 367.101562 336.078125 365.261719 331.4375 L 364.832031 330.378906 C 362.589844 324.375 362.570312 318.121094 362.601562 311.804688 C 362.605469 310.492188 362.601562 309.179688 362.59375 307.863281 C 362.585938 299.566406 363.234375 291.679688 367.390625 284.304688 C 368.125 283.089844 368.882812 281.886719 369.664062 280.703125 L 370.390625 279.585938 C 372.191406 276.960938 374.277344 275.015625 376.71875 272.992188 C 377.519531 272.230469 378.324219 271.472656 379.125 270.710938 C 381.613281 268.472656 384.1875 266.921875 387.210938 265.496094 L 388.660156 264.8125 C 392.25 263.222656 395.851562 262.242188 399.699219 261.5 L 401.160156 261.21875 C 408.910156 260.117188 416.722656 261.484375 423.988281 264.246094 C 430.433594 267.121094 436.296875 271.433594 440.664062 276.988281 L 441.644531 278.214844 C 446.671875 284.792969 449.507812 291.796875 450.65625 299.964844 C 451.058594 305.039062 451.03125 310.128906 451.03125 315.214844 C 451.03125 317.738281 451.054688 320.261719 451.070312 322.785156 C 451.082031 324.121094 451.085938 325.457031 451.085938 326.792969 L 451.09375 328.601562 L 451.09375 330.191406 C 451.070312 331.4375 451.070312 331.4375 451.65625 332.433594 L 494.117188 332.433594 C 495.0625 330.074219 495.253906 328.449219 495.230469 325.988281 L 495.230469 324.792969 C 495.230469 323.476562 495.222656 322.15625 495.214844 320.835938 L 495.210938 317.996094 C 495.207031 315.957031 495.203125 313.917969 495.191406 311.878906 C 495.179688 308.65625 495.171875 305.4375 495.167969 302.214844 C 495.160156 295.375 495.140625 288.539062 495.117188 281.699219 C 495.097656 274.316406 495.074219 266.933594 495.066406 259.550781 C 495.058594 256.347656 495.050781 253.144531 495.035156 249.941406 C 495.027344 247.949219 495.027344 245.957031 495.023438 243.964844 C 495.023438 243.042969 495.019531 242.117188 495.011719 241.191406 C 495.003906 239.933594 495.003906 238.671875 495.003906 237.410156 L 494.992188 236.296875 C 495 234.878906 495.070312 233.664062 495.53125 232.316406 L 496.117188 231.53125 C 497.519531 231.0625 498.417969 230.957031 499.871094 230.933594 M 547.59375 230.84375 L 548.777344 230.84375 L 550.121094 230.835938 L 551.566406 230.847656 L 553.058594 230.847656 C 554.101562 230.847656 555.140625 230.855469 556.183594 230.863281 C 557.777344 230.875 559.367188 230.871094 560.960938 230.871094 C 561.972656 230.871094 562.984375 230.875 563.996094 230.878906 L 565.441406 230.878906 L 566.789062 230.894531 L 567.972656 230.898438 C 569.183594 231.046875 569.980469 231.464844 571.054688 232.03125 C 571.121094 251.035156 571.167969 270.042969 571.191406 289.046875 C 571.203125 295.386719 571.222656 301.722656 571.246094 308.058594 C 571.269531 314.558594 571.285156 321.054688 571.289062 327.554688 C 571.292969 331.566406 571.304688 335.578125 571.324219 339.589844 C 571.339844 342.664062 571.339844 345.738281 571.335938 348.8125 C 571.335938 350.074219 571.339844 351.335938 571.351562 352.601562 C 571.363281 354.320312 571.359375 356.039062 571.355469 357.757812 L 571.375 359.285156 C 571.363281 360.542969 571.335938 361.679688 571.054688 362.90625 C 569.851562 363.964844 569.851562 363.964844 568.554688 364.40625 C 567.515625 364.589844 567.515625 364.589844 566.484375 364.589844 L 565.304688 364.601562 L 564.046875 364.585938 L 562.734375 364.585938 C 561.820312 364.585938 560.90625 364.582031 559.996094 364.574219 C 558.601562 364.5625 557.210938 364.5625 555.816406 364.566406 C 554.929688 364.5625 554.039062 364.558594 553.148438 364.554688 L 551.894531 364.554688 C 549.613281 364.527344 547.699219 364.347656 545.574219 363.40625 C 544.992188 362.238281 545.011719 361.558594 545.011719 360.257812 L 545.003906 358.886719 L 545.003906 357.367188 L 545 355.757812 C 544.996094 353.972656 544.996094 352.183594 544.996094 350.394531 L 544.988281 346.5625 C 544.980469 343.085938 544.976562 339.605469 544.976562 336.128906 C 544.972656 333.957031 544.972656 331.789062 544.96875 329.617188 C 544.964844 323.613281 544.960938 317.605469 544.957031 311.601562 L 544.957031 305.75 C 544.953125 299.46875 544.945312 293.1875 544.933594 286.90625 C 544.921875 280.460938 544.914062 274.015625 544.914062 267.570312 C 544.914062 263.949219 544.910156 260.332031 544.902344 256.710938 C 544.894531 253.304688 544.890625 249.902344 544.898438 246.5 C 544.898438 245.246094 544.894531 243.996094 544.890625 242.742188 C 544.882812 241.039062 544.886719 239.335938 544.890625 237.632812 L 544.878906 236.117188 L 544.890625 234.738281 L 544.890625 233.546875 C 545.074219 232.527344 545.074219 232.527344 545.773438 231.652344 C 546.574219 231.03125 546.574219 231.03125 547.59375 230.84375 M 145.695312 438.179688 L 146.859375 438.132812 C 147.976562 438.121094 147.976562 438.121094 149.910156 438.335938 C 150.855469 439.101562 150.855469 439.101562 151.410156 440.332031 C 151.832031 441.625 152.199219 442.890625 152.535156 444.203125 C 152.75 445.019531 152.96875 445.832031 153.1875 446.648438 L 153.539062 447.964844 C 154.183594 450.332031 154.871094 452.683594 155.5625 455.039062 L 156.003906 456.539062 C 157.347656 461.128906 158.707031 465.71875 160.070312 470.304688 L 160.554688 471.929688 L 161.003906 473.441406 C 161.339844 474.59375 161.65625 475.746094 161.953125 476.90625 L 162.402344 478.296875 L 163.398438 478.796875 L 163.554688 477.941406 C 164.253906 474.257812 165.207031 470.667969 166.210938 467.058594 L 166.738281 465.152344 C 168.085938 460.308594 169.535156 455.492188 171.042969 450.691406 C 171.945312 447.816406 172.785156 444.941406 173.53125 442.019531 C 173.886719 440.851562 174.238281 439.867188 174.890625 438.835938 C 177.785156 438.09375 180.910156 438.171875 183.882812 438.335938 L 185.382812 438.835938 C 185.9375 440.238281 186.425781 441.664062 186.847656 443.113281 L 187.242188 444.402344 C 188.242188 447.730469 189.109375 451.082031 189.898438 454.464844 C 190.355469 456.226562 190.894531 457.921875 191.484375 459.640625 C 192.148438 461.628906 192.746094 463.640625 193.34375 465.652344 L 193.734375 466.964844 C 193.992188 467.832031 194.25 468.703125 194.507812 469.574219 C 194.738281 470.351562 194.972656 471.132812 195.207031 471.910156 C 195.492188 472.875 195.777344 473.835938 196.058594 474.800781 L 196.539062 476.421875 C 196.871094 477.796875 196.871094 477.796875 196.871094 479.796875 L 197.871094 479.796875 L 198.039062 478.09375 C 198.34375 475.667969 198.984375 473.390625 199.683594 471.054688 L 200.078125 469.695312 C 200.359375 468.734375 200.640625 467.773438 200.925781 466.8125 C 201.378906 465.273438 201.828125 463.730469 202.273438 462.1875 C 203.613281 457.558594 204.960938 452.9375 206.417969 448.34375 C 206.761719 447.167969 207.070312 446 207.355469 444.808594 L 207.613281 443.765625 C 207.847656 442.792969 208.074219 441.816406 208.300781 440.84375 L 208.863281 439.332031 C 209.914062 438.636719 210.652344 438.347656 211.910156 438.265625 L 213.023438 438.347656 L 214.230469 438.425781 L 215.480469 438.523438 L 216.753906 438.609375 C 217.785156 438.679688 218.820312 438.753906 219.851562 438.835938 C 218.933594 441.941406 217.980469 445.035156 216.949219 448.105469 L 216.519531 449.386719 C 214.503906 455.398438 212.445312 461.394531 210.390625 467.390625 C 208.429688 473.121094 206.480469 478.851562 204.609375 484.609375 L 204.023438 486.414062 L 203.421875 488.265625 C 202.867188 489.785156 202.867188 489.785156 201.867188 491.285156 C 200.835938 491.453125 200.835938 491.453125 199.585938 491.429688 L 198.226562 491.414062 C 197.761719 491.402344 197.292969 491.390625 196.808594 491.378906 L 195.378906 491.359375 C 194.210938 491.339844 193.042969 491.316406 191.875 491.285156 C 188.835938 482.332031 186.179688 473.246094 183.453125 464.195312 C 182.972656 462.605469 182.488281 461.015625 182.003906 459.429688 L 181.324219 457.160156 L 180.757812 455.292969 C 180.386719 453.820312 180.386719 453.820312 180.386719 451.820312 L 179.386719 451.820312 L 179.015625 453.65625 C 178.316406 456.796875 177.328125 459.839844 176.359375 462.90625 C 175.953125 464.191406 175.550781 465.476562 175.148438 466.761719 C 175.042969 467.089844 174.941406 467.417969 174.835938 467.757812 C 174.09375 470.136719 173.375 472.519531 172.664062 474.910156 C 172.566406 475.246094 172.46875 475.578125 172.363281 475.925781 C 171.886719 477.535156 171.414062 479.144531 170.941406 480.757812 C 168.214844 489.964844 168.214844 489.964844 166.898438 491.285156 C 166.1875 491.324219 165.480469 491.339844 164.773438 491.332031 L 163.480469 491.328125 L 162.121094 491.316406 L 160.753906 491.308594 C 159.636719 491.304688 158.523438 491.292969 157.40625 491.285156 C 155.371094 486.726562 153.800781 482.074219 152.285156 477.324219 C 151.582031 475.117188 150.867188 472.914062 150.15625 470.707031 L 149.71875 469.347656 C 148.359375 465.136719 146.976562 460.929688 145.574219 456.734375 C 145.328125 455.992188 145.082031 455.253906 144.835938 454.511719 C 143.089844 449.265625 141.277344 444.042969 139.421875 438.835938 C 141.527344 438.25 143.519531 438.207031 145.695312 438.179688 M 529.289062 438.113281 C 530.722656 437.933594 531.691406 437.941406 533.085938 438.335938 C 536.039062 440.714844 538.199219 443.839844 540.214844 447.023438 C 541.351562 448.738281 542.585938 450.371094 543.828125 452.007812 C 546.105469 455.023438 548.363281 458.050781 550.601562 461.09375 L 551.484375 462.292969 C 552.898438 464.210938 554.304688 466.128906 555.699219 468.058594 L 556.464844 469.113281 C 556.9375 469.765625 557.40625 470.421875 557.878906 471.074219 C 558.992188 472.6875 558.992188 472.6875 560.5625 473.800781 L 560.515625 472.734375 C 560.179688 464.550781 560.007812 456.359375 560 448.167969 L 559.996094 446.84375 C 559.996094 445.601562 559.996094 444.359375 559.996094 443.117188 L 559.992188 441.976562 C 559.996094 441.097656 560.027344 440.214844 560.0625 439.332031 L 560.5625 438.835938 C 563.542969 438.347656 566.535156 438.132812 569.554688 438.335938 L 570.054688 438.835938 C 570.109375 439.5 570.128906 440.171875 570.136719 440.839844 L 570.152344 442.152344 L 570.164062 443.597656 L 570.183594 445.113281 C 570.199219 446.777344 570.214844 448.441406 570.230469 450.101562 L 570.265625 453.554688 C 570.289062 455.96875 570.3125 458.382812 570.332031 460.800781 C 570.359375 463.902344 570.390625 467.003906 570.425781 470.105469 C 570.449219 472.480469 570.472656 474.859375 570.496094 477.234375 C 570.503906 478.378906 570.515625 479.523438 570.53125 480.667969 C 570.546875 482.261719 570.558594 483.859375 570.574219 485.457031 L 570.589844 486.902344 L 570.597656 488.214844 L 570.609375 489.359375 C 570.554688 490.285156 570.554688 490.285156 570.054688 491.285156 C 568.816406 491.507812 568.816406 491.507812 567.246094 491.628906 L 565.695312 491.757812 C 563.871094 491.785156 562.335938 491.734375 560.5625 491.285156 C 559.375 490.148438 559.375 490.148438 558.285156 488.597656 L 557.660156 487.734375 C 557.203125 487.101562 556.75 486.464844 556.300781 485.828125 C 555.25 484.34375 554.160156 482.882812 553.078125 481.421875 C 551.875 479.800781 550.679688 478.171875 549.484375 476.539062 C 547.996094 474.511719 546.503906 472.484375 545.011719 470.460938 L 544.144531 469.28125 C 542.71875 467.339844 541.277344 465.410156 539.824219 463.488281 L 538.984375 462.375 C 538.457031 461.683594 537.933594 460.996094 537.402344 460.308594 C 536.398438 458.984375 535.613281 457.902344 535.085938 456.316406 L 534.085938 456.316406 L 533.585938 491.285156 L 524.09375 491.285156 C 523.523438 490.144531 523.53125 489.519531 523.53125 488.257812 L 523.527344 486.96875 L 523.53125 485.558594 L 523.527344 484.070312 C 523.523438 482.441406 523.527344 480.8125 523.527344 479.1875 C 523.527344 478.058594 523.527344 476.933594 523.527344 475.804688 C 523.527344 473.4375 523.527344 471.074219 523.527344 468.710938 C 523.53125 465.671875 523.53125 462.636719 523.527344 459.597656 C 523.527344 457.269531 523.527344 454.941406 523.527344 452.613281 C 523.527344 451.492188 523.527344 450.371094 523.527344 449.25 C 523.523438 447.6875 523.527344 446.125 523.53125 444.5625 L 523.527344 443.148438 L 523.53125 441.863281 L 523.53125 440.742188 C 523.59375 439.832031 523.59375 439.832031 524.09375 438.835938 C 525.8125 438.523438 525.8125 438.523438 526.90625 438.433594 C 528.097656 438.355469 528.097656 438.355469 529.289062 438.113281 M 253.824219 438.101562 C 255.054688 438.042969 256.277344 438.007812 257.507812 437.992188 L 258.796875 437.910156 C 260.082031 437.890625 261.089844 437.941406 262.316406 438.335938 C 263.5 439.511719 264.140625 440.816406 264.8125 442.332031 L 265.59375 443.925781 L 266.3125 445.609375 L 266.738281 446.597656 C 267.265625 447.835938 267.789062 449.078125 268.3125 450.324219 L 269.023438 452.019531 C 270.121094 454.640625 271.222656 457.265625 272.320312 459.890625 C 273.984375 463.871094 275.671875 467.84375 277.398438 471.804688 L 277.992188 473.171875 C 279.058594 475.605469 280.128906 478.039062 281.203125 480.472656 L 281.902344 482.058594 C 282.34375 483.0625 282.785156 484.066406 283.230469 485.066406 L 283.832031 486.433594 L 284.359375 487.632812 C 284.796875 488.785156 284.796875 488.785156 285.296875 491.285156 L 274.304688 491.285156 L 272.871094 487.757812 L 272.421875 486.667969 L 272.0625 485.773438 L 271.695312 484.875 C 271.160156 483.375 270.746094 481.828125 270.308594 480.292969 L 244.332031 480.792969 L 239.835938 491.285156 C 237.367188 491.695312 235.347656 491.773438 232.902344 491.566406 L 231.863281 491.484375 C 231.023438 491.421875 230.183594 491.355469 229.34375 491.285156 C 229.675781 488.960938 230.589844 486.964844 231.5625 484.851562 L 232.648438 482.4375 L 233.234375 481.144531 C 234.296875 478.777344 235.335938 476.398438 236.371094 474.019531 L 237.011719 472.546875 C 238.433594 469.257812 239.820312 465.953125 241.171875 462.632812 C 242.097656 460.363281 243.078125 458.117188 244.105469 455.890625 C 245.121094 453.6875 246.117188 451.476562 247.109375 449.261719 L 247.679688 447.996094 L 248.234375 446.761719 L 248.785156 445.542969 C 249.152344 444.722656 249.507812 443.898438 249.859375 443.074219 L 250.371094 441.867188 L 250.820312 440.789062 C 251.578125 439.359375 252.207031 438.476562 253.824219 438.101562 M 444.664062 438.101562 C 445.890625 438.042969 447.117188 438.007812 448.34375 437.992188 L 449.632812 437.910156 C 450.914062 437.890625 451.929688 437.957031 453.152344 438.335938 C 454.410156 439.457031 454.980469 440.808594 455.652344 442.332031 L 456.359375 443.855469 C 457.171875 445.644531 457.945312 447.453125 458.710938 449.261719 C 458.996094 449.925781 459.28125 450.589844 459.566406 451.253906 C 460.429688 453.273438 461.289062 455.292969 462.144531 457.316406 L 462.933594 459.171875 C 464.324219 462.441406 465.707031 465.714844 467.085938 468.992188 C 468.667969 472.738281 470.277344 476.472656 471.910156 480.199219 L 472.601562 481.773438 C 473.054688 482.808594 473.511719 483.847656 473.96875 484.882812 L 474.597656 486.324219 L 475.167969 487.617188 C 475.589844 488.675781 475.9375 489.660156 476.132812 490.785156 L 475.636719 491.285156 C 474.855469 491.324219 474.074219 491.339844 473.292969 491.332031 L 471.863281 491.328125 L 470.359375 491.316406 L 468.847656 491.308594 C 467.613281 491.304688 466.378906 491.292969 465.144531 491.285156 C 464.664062 490.109375 464.183594 488.933594 463.707031 487.757812 L 463.300781 486.761719 L 462.898438 485.773438 L 462.535156 484.875 C 461.996094 483.375 461.585938 481.828125 461.148438 480.292969 L 435.167969 480.792969 L 430.671875 491.285156 C 427.050781 491.625 423.765625 491.917969 420.183594 491.285156 C 420.511719 489.140625 421.265625 487.285156 422.148438 485.320312 L 422.609375 484.28125 C 423.519531 482.242188 424.445312 480.207031 425.378906 478.175781 L 426.644531 475.425781 L 427.289062 474.019531 C 428.894531 470.492188 430.347656 466.917969 431.753906 463.308594 C 432.964844 460.238281 434.359375 457.332031 435.875 454.398438 C 437.113281 451.933594 438.128906 449.382812 439.164062 446.828125 C 439.679688 445.566406 440.199219 444.304688 440.726562 443.050781 L 441.449219 441.296875 C 442.25 439.65625 442.816406 438.53125 444.664062 438.101562 M 34.511719 438.148438 L 35.75 438.089844 L 36.945312 438.074219 L 38.035156 438.042969 L 39.007812 438.335938 C 40.203125 439.972656 40.976562 441.792969 41.78125 443.648438 L 42.492188 445.273438 L 43.222656 446.953125 L 44.65625 450.238281 L 45.351562 451.835938 C 46.074219 453.488281 46.804688 455.140625 47.542969 456.792969 C 49.398438 460.957031 51.246094 465.125 52.917969 469.367188 C 55.066406 474.734375 57.308594 480.058594 59.828125 485.261719 C 60.675781 487.21875 61.3125 489.261719 61.988281 491.285156 L 50.996094 491.285156 C 49.308594 487.164062 49.308594 487.164062 48.785156 485.875 L 48.363281 484.84375 L 47.933594 483.800781 C 47.492188 482.777344 47 481.789062 46.5 480.792969 C 43.050781 480.671875 39.601562 480.566406 36.152344 480.472656 C 34.976562 480.4375 33.804688 480.398438 32.628906 480.355469 C 30.941406 480.296875 29.257812 480.253906 27.570312 480.210938 L 25.980469 480.144531 C 24.632812 480.117188 23.355469 480.113281 22.019531 480.296875 C 20.675781 481.210938 20.242188 481.867188 19.515625 483.285156 L 19.148438 484.3125 L 18.726562 485.4375 C 18.445312 486.214844 18.164062 486.996094 17.890625 487.777344 C 17.492188 488.828125 17.085938 489.808594 16.523438 490.785156 C 15.425781 491.558594 15.425781 491.558594 14.027344 491.785156 C 12.640625 491.78125 11.257812 491.71875 9.875 491.597656 L 8.753906 491.511719 C 7.847656 491.441406 6.941406 491.363281 6.035156 491.285156 C 6.324219 488.632812 7.222656 486.574219 8.34375 484.199219 C 10.589844 479.332031 12.707031 474.421875 14.808594 469.492188 C 16.894531 464.609375 18.980469 459.726562 21.15625 454.882812 C 22.027344 452.945312 22.875 451 23.703125 449.046875 L 24.320312 447.597656 C 24.710938 446.671875 25.101562 445.75 25.488281 444.820312 C 27.347656 440.4375 27.347656 440.4375 28.515625 438.835938 C 30.527344 438.164062 32.402344 438.183594 34.511719 438.148438 " fill-opacity="1" fill-rule="nonzero"/><path fill="#fefefe" d="M 406.695312 287.789062 L 407.980469 287.773438 C 410.804688 287.785156 413.160156 288.171875 415.6875 289.476562 C 419.257812 291.949219 421.777344 295.082031 423.679688 298.964844 C 424.234375 300.628906 424.28125 301.957031 424.335938 303.707031 L 424.367188 304.691406 C 424.402344 305.761719 424.429688 306.828125 424.460938 307.894531 L 424.492188 308.996094 C 424.640625 314.375 424.742188 319.75 424.773438 325.128906 L 424.792969 326.988281 L 424.792969 328.699219 L 424.800781 330.195312 C 424.679688 331.4375 424.679688 331.4375 423.679688 332.933594 C 422.269531 333.09375 420.855469 333.171875 419.4375 333.167969 L 418.144531 333.179688 C 417.238281 333.183594 416.332031 333.1875 415.421875 333.183594 C 414.054688 333.183594 412.6875 333.203125 411.320312 333.226562 C 406.105469 333.261719 401.90625 332.90625 397.203125 330.4375 C 394.699219 328.992188 393.105469 327.488281 391.550781 325.035156 C 388.421875 319.382812 388.019531 313.828125 388.105469 307.488281 C 388.238281 303.089844 389.039062 299.355469 391.269531 295.53125 C 393.210938 292.726562 395.480469 290.5625 398.558594 289.054688 C 401.28125 287.902344 403.761719 287.75 406.695312 287.789062 " fill-opacity="1" fill-rule="nonzero"/><path fill="#5e4b21" d="M 307.246094 438.273438 L 308.351562 438.269531 C 309.277344 438.335938 309.277344 438.335938 310.277344 438.835938 L 310.773438 460.3125 C 312.421875 460.726562 313.542969 460.875 315.203125 460.871094 L 316.65625 460.871094 L 318.214844 460.863281 L 319.816406 460.859375 C 321.507812 460.855469 323.199219 460.851562 324.886719 460.84375 C 326.035156 460.84375 327.179688 460.839844 328.328125 460.835938 C 331.136719 460.832031 333.945312 460.824219 336.753906 460.8125 L 336.753906 438.835938 C 345.246094 438.335938 345.246094 438.335938 346.746094 438.835938 L 346.746094 491.285156 C 339.75 491.785156 339.75 491.785156 336.753906 491.285156 L 336.753906 469.804688 L 310.277344 469.804688 L 310.277344 491.285156 C 303.78125 491.785156 303.78125 491.785156 300.285156 491.285156 L 300.285156 438.835938 C 305.402344 438.265625 305.402344 438.265625 307.246094 438.273438 M 372.234375 438.738281 C 373.332031 439.402344 373.722656 439.902344 374.351562 441.007812 L 374.945312 442.035156 L 375.5625 443.140625 L 376.21875 444.289062 C 376.890625 445.464844 377.554688 446.644531 378.21875 447.824219 L 379.417969 449.953125 C 379.988281 450.957031 380.550781 451.964844 381.113281 452.96875 C 382.5625 455.570312 384.070312 458.132812 385.605469 460.683594 C 386.210938 461.8125 386.210938 461.8125 386.210938 462.8125 L 387.210938 462.8125 L 387.613281 461.746094 C 388.242188 460.230469 388.976562 458.835938 389.769531 457.402344 C 390.078125 456.839844 390.390625 456.28125 390.707031 455.703125 C 391.210938 454.800781 391.710938 453.902344 392.214844 453.003906 C 394.273438 449.320312 396.335938 445.636719 398.511719 442.019531 L 399.082031 441.035156 C 399.625 440.15625 399.625 440.15625 400.699219 438.835938 C 402.589844 438.113281 404.589844 438.28125 406.601562 438.304688 L 408.359375 438.316406 L 409.691406 438.335938 C 409.992188 439.214844 409.992188 439.214844 410.191406 440.332031 C 409.875 441.269531 409.875 441.269531 409.34375 442.226562 L 408.757812 443.308594 L 408.128906 444.421875 L 407.535156 445.507812 C 406.929688 446.617188 406.3125 447.722656 405.695312 448.824219 C 403.878906 452.085938 402.078125 455.351562 400.292969 458.628906 L 399.503906 460.074219 C 397.765625 463.253906 396.054688 466.445312 394.367188 469.652344 C 393.257812 471.75 393.257812 471.75 392.707031 472.300781 C 392.625 473.707031 392.574219 475.097656 392.546875 476.503906 L 392.515625 477.777344 C 392.484375 479.128906 392.453125 480.476562 392.425781 481.824219 L 392.359375 484.5625 C 392.304688 486.800781 392.253906 489.042969 392.207031 491.285156 C 388.535156 491.941406 385.378906 491.820312 381.714844 491.285156 L 381.789062 489.902344 C 382.101562 482.378906 382.394531 475.097656 378.878906 468.25 C 377.570312 465.972656 376.207031 463.730469 374.789062 461.515625 C 373.128906 458.90625 371.679688 456.183594 370.199219 453.46875 C 369.457031 452.113281 368.699219 450.769531 367.945312 449.417969 C 367.371094 448.390625 366.800781 447.359375 366.226562 446.328125 L 365.738281 445.441406 C 365.242188 444.542969 364.75 443.648438 364.261719 442.75 L 363.371094 441.128906 C 362.730469 439.832031 362.730469 439.832031 362.730469 438.835938 C 365.617188 438.210938 369.417969 437.617188 372.234375 438.738281 M 70.042969 254.070312 C 72.785156 255.25 75.03125 257.0625 77.128906 259.160156 C 78.675781 261.625 79.535156 264.238281 79.691406 267.152344 C 79.554688 270.113281 78.785156 272.835938 77.472656 275.488281 C 75.917969 277.609375 74.199219 279.296875 71.894531 280.59375 C 68.878906 281.777344 65.675781 281.785156 62.484375 281.484375 C 59.914062 281.03125 57.925781 280.089844 55.867188 278.484375 C 54.042969 276.734375 52.863281 274.914062 51.925781 272.566406 C 51.089844 269.5 50.984375 266.636719 51.496094 263.5 C 52.523438 260.722656 53.894531 258.492188 56.101562 256.503906 C 60.199219 253.589844 65.1875 252.460938 70.042969 254.070312 M 266.582031 370.097656 C 268.976562 370.835938 270.738281 372.398438 272.425781 374.210938 C 274.21875 376.617188 275.027344 379.203125 275.511719 382.140625 C 275.703125 385.234375 274.792969 387.769531 273.511719 390.5625 C 272.035156 393.320312 269.878906 394.75 267.292969 396.367188 C 264.863281 397.621094 262.277344 397.597656 259.585938 397.578125 C 256.667969 397.238281 254.214844 396.058594 251.824219 394.375 C 249.675781 392.003906 248.308594 389.421875 247.328125 386.382812 C 246.851562 383.511719 246.957031 381.023438 247.867188 378.25 C 248.988281 375.765625 250.175781 373.792969 252.324219 372.085938 C 256.457031 369.246094 261.785156 369.351562 266.582031 370.097656 M 171.550781 369.773438 L 172.660156 369.742188 C 175.289062 369.722656 177.046875 370.191406 179.386719 371.398438 C 181.242188 372.503906 182.527344 373.800781 183.640625 375.652344 C 184.792969 378.023438 185.839844 380.472656 186.015625 383.125 C 185.65625 386.53125 184.328125 390.304688 182.351562 393.128906 C 180.070312 395.070312 177.730469 396.40625 174.890625 397.375 C 171.933594 397.789062 169.34375 397.667969 166.492188 396.78125 L 164.898438 395.875 L 163.90625 395.429688 C 162.734375 394.839844 161.867188 394.273438 160.902344 393.378906 C 158.984375 390.308594 157.363281 387.066406 157.1875 383.417969 C 157.230469 380.503906 158.019531 378.34375 159.410156 375.800781 C 161.019531 373.519531 163.011719 371.835938 165.398438 370.398438 C 167.429688 369.785156 169.445312 369.789062 171.550781 369.773438 M 231.25 369.773438 L 232.289062 369.742188 C 234.789062 369.722656 236.578125 370.226562 238.835938 371.398438 C 240.941406 372.847656 242.738281 374.527344 244.050781 376.738281 C 245.484375 379.777344 245.570312 382.550781 245.332031 385.882812 C 244.773438 389.03125 243.335938 391.453125 241.320312 393.902344 C 239.601562 395.601562 237.691406 396.460938 235.40625 397.15625 C 232.324219 397.78125 229.226562 397.789062 226.210938 396.878906 C 223.496094 395.664062 221.578125 394.335938 219.789062 391.941406 C 218.023438 389.070312 217.347656 386.507812 217.199219 383.136719 C 217.277344 380.363281 218.054688 378.195312 219.496094 375.84375 C 221.152344 373.476562 222.882812 371.902344 225.347656 370.398438 C 227.253906 369.71875 229.25 369.789062 231.25 369.773438 M 145.914062 369.898438 C 147.527344 370.292969 148.625 370.859375 149.910156 371.898438 L 150.851562 372.652344 C 152.761719 374.367188 154.132812 376.207031 155.078125 378.597656 C 155.839844 381.59375 155.722656 384.648438 155.171875 387.675781 C 154.523438 389.941406 153.523438 391.839844 151.898438 393.554688 C 149.78125 395.3125 147.523438 396.503906 144.914062 397.375 C 142.0625 397.769531 139.195312 397.835938 136.484375 396.75 L 134.925781 395.875 L 133.144531 395.0625 C 131.257812 393.945312 130.179688 392.445312 129.039062 390.597656 C 127.824219 388.175781 127.511719 385.808594 127.273438 383.136719 C 127.554688 379.992188 128.472656 377.371094 130.273438 374.769531 C 131.84375 372.800781 133.675781 371.515625 135.921875 370.398438 C 139.003906 369.371094 142.691406 369.613281 145.914062 369.898438 M 86.464844 435.335938 L 86.464844 491.285156 L 76.972656 491.285156 L 76.972656 435.335938 C 80.417969 434.761719 83.015625 434.648438 86.464844 435.335938 M 500.613281 438.335938 L 501.613281 438.835938 L 501.613281 491.285156 L 492.121094 491.285156 C 491.730469 489.726562 491.558594 488.703125 491.558594 487.152344 L 491.554688 485.875 L 491.558594 484.480469 L 491.554688 483.007812 C 491.550781 481.398438 491.554688 479.789062 491.554688 478.183594 L 491.554688 474.835938 C 491.550781 472.496094 491.554688 470.160156 491.554688 467.820312 C 491.558594 464.816406 491.558594 461.8125 491.554688 458.808594 C 491.554688 456.507812 491.554688 454.203125 491.554688 451.898438 C 491.554688 450.792969 491.554688 449.683594 491.554688 448.578125 C 491.550781 447.03125 491.554688 445.488281 491.558594 443.945312 L 491.554688 442.542969 C 491.558594 441.472656 491.585938 440.402344 491.621094 439.332031 L 492.121094 438.835938 C 494.9375 438.382812 497.761719 438.132812 500.613281 438.335938 " fill-opacity="1" fill-rule="nonzero"/><path fill="#bf9d75" d="M 231.019531 247.121094 C 235.183594 248.023438 238.625 250.269531 241.832031 253.007812 C 244.292969 255.25 244.292969 255.25 245.332031 256.507812 L 245.332031 257.503906 C 246.765625 257.566406 247.515625 257.539062 248.828125 257.007812 C 249.894531 255.972656 249.894531 255.972656 250.917969 254.695312 C 253.632812 251.46875 256.746094 249.53125 260.652344 247.984375 C 263.285156 247.132812 266.035156 246.539062 268.8125 246.515625 L 270.308594 247.015625 C 270.964844 248.324219 270.894531 249.535156 270.925781 250.976562 C 270.808594 252.011719 270.808594 252.011719 270.546875 253.058594 L 269.808594 254.007812 C 268.542969 254.511719 267.253906 254.941406 265.9375 255.289062 C 262.027344 256.375 258.808594 257.691406 255.765625 260.46875 C 253.320312 263.148438 252.320312 266.296875 251.511719 269.773438 L 251.210938 271.308594 L 250.824219 272.492188 C 249.320312 272.992188 248.308594 273.042969 246.734375 273.023438 L 245.371094 273.007812 L 244.332031 272.992188 C 243.246094 270.949219 242.5 269.007812 241.894531 266.777344 C 240.933594 263.601562 239.863281 261.566406 237.570312 259.21875 C 235.101562 257.0625 232.308594 256.230469 229.207031 255.375 C 227.226562 254.824219 225.453125 254.328125 223.847656 253.007812 C 223.585938 251.804688 223.585938 251.804688 223.660156 250.480469 L 223.710938 249.152344 C 223.847656 248.015625 223.847656 248.015625 224.347656 247.015625 C 226.636719 246.253906 228.667969 246.757812 231.019531 247.121094 M 480.628906 252.511719 L 482.128906 253.507812 C 482.722656 255.285156 482.761719 256.640625 482.628906 258.503906 C 482.058594 259.324219 482.058594 259.324219 481.128906 260.003906 C 479.757812 260.355469 479.757812 260.355469 478.132812 260.628906 C 474.035156 261.511719 471.195312 263.296875 468 265.945312 C 465.632812 268.257812 464.652344 270.558594 463.769531 273.675781 L 463.503906 274.742188 C 463.117188 276.253906 462.800781 277.324219 461.71875 278.476562 C 460.648438 278.984375 460.648438 278.984375 459.523438 279.09375 L 458.367188 278.953125 L 457.210938 278.84375 C 456.152344 278.484375 456.152344 278.484375 455.3125 277.664062 C 454.488281 276.199219 454.199219 274.820312 453.839844 273.179688 C 452.953125 269.917969 451.71875 267.894531 449.332031 265.523438 C 446.253906 262.832031 443.5625 261.707031 439.558594 260.816406 C 438.054688 260.476562 436.617188 260.027344 435.167969 259.503906 C 435.128906 258.703125 435.097656 257.902344 435.074219 257.101562 L 435.023438 255.746094 C 435.167969 254.507812 435.167969 254.507812 435.800781 253.609375 C 436.667969 253.007812 436.667969 253.007812 437.605469 252.8125 C 442.476562 252.863281 446.660156 254.242188 450.863281 256.667969 C 453.316406 258.257812 455.527344 259.914062 456.996094 262.46875 L 457.648438 263.5 L 458.835938 263.875 L 460.148438 263.5 C 460.761719 262.667969 461.371094 261.835938 461.933594 260.96875 C 464.164062 257.9375 467.8125 256.261719 471.121094 254.671875 C 474.144531 253.351562 477.285156 252.101562 480.628906 252.511719 M 195.542969 237.5 C 197.269531 237.476562 199 237.460938 200.726562 237.449219 L 202.132812 237.425781 C 205.074219 237.410156 205.074219 237.410156 206.460938 237.957031 L 207.363281 238.523438 C 207.800781 239.710938 207.800781 239.710938 207.863281 241.019531 C 207.488281 242.144531 207.488281 242.144531 206.863281 243.019531 C 205.445312 243.492188 204.566406 243.582031 203.097656 243.585938 L 201.6875 243.59375 L 200.144531 243.589844 L 198.515625 243.597656 C 196.734375 243.601562 194.957031 243.601562 193.175781 243.601562 L 189.46875 243.609375 C 186.878906 243.609375 184.289062 243.613281 181.695312 243.609375 C 178.375 243.609375 175.050781 243.617188 171.730469 243.625 C 169.179688 243.632812 166.625 243.632812 164.074219 243.632812 C 162.851562 243.632812 161.625 243.636719 160.398438 243.640625 C 158.6875 243.644531 156.976562 243.644531 155.261719 243.640625 C 154.753906 243.644531 154.246094 243.644531 153.726562 243.648438 C 151.820312 243.640625 150.195312 243.601562 148.359375 243.074219 L 147.414062 242.519531 C 146.730469 241.15625 146.851562 240.03125 146.914062 238.523438 L 147.414062 238.023438 C 148.78125 237.960938 150.132812 237.929688 151.5 237.921875 L 152.800781 237.90625 C 154.230469 237.890625 155.664062 237.878906 157.09375 237.867188 L 160.097656 237.835938 C 162.207031 237.8125 164.320312 237.792969 166.429688 237.773438 C 169.621094 237.742188 172.816406 237.710938 176.007812 237.675781 C 180.503906 237.632812 185 237.589844 189.492188 237.554688 C 191.511719 237.539062 193.527344 237.523438 195.542969 237.5 M 356.734375 357.910156 C 358.253906 357.921875 358.253906 357.921875 360.046875 358.097656 L 361.84375 358.265625 L 363.230469 358.410156 L 363.261719 359.746094 C 363.300781 361.390625 363.34375 363.03125 363.390625 364.675781 C 363.40625 365.386719 363.425781 366.09375 363.441406 366.804688 C 363.464844 367.828125 363.492188 368.851562 363.523438 369.875 L 363.570312 371.738281 C 363.722656 373.324219 364.050781 374.460938 364.730469 375.894531 L 368.226562 375.394531 L 368.410156 374.320312 L 368.664062 372.929688 L 368.910156 371.539062 L 369.226562 370.398438 C 370.742188 369.640625 372.042969 369.816406 373.722656 369.898438 C 375.4375 370.398438 375.4375 370.398438 376.71875 370.898438 C 376.882812 373.523438 376.871094 375.945312 375.839844 378.398438 C 374.542969 380.476562 372.691406 381.960938 370.722656 383.386719 C 369.261719 384.148438 368.3125 384.378906 366.683594 384.394531 C 364.292969 384.246094 362.230469 383.695312 360.128906 382.535156 C 358.59375 381.425781 357.5625 380.089844 356.734375 378.390625 C 355.90625 375.890625 355.609375 373.722656 355.605469 371.089844 L 355.601562 370.039062 C 355.601562 369.3125 355.601562 368.582031 355.605469 367.855469 C 355.613281 366.742188 355.605469 365.625 355.601562 364.507812 C 355.601562 363.800781 355.601562 363.089844 355.605469 362.378906 L 355.605469 360.433594 L 355.738281 358.910156 Z M 143.917969 256.507812 C 144.8125 256.445312 145.707031 256.414062 146.601562 256.414062 L 148.082031 256.390625 C 149.414062 256.507812 149.414062 256.507812 150.910156 257.503906 C 151.078125 258.8125 151.15625 260.007812 151.167969 261.316406 L 151.195312 262.457031 C 151.21875 263.65625 151.238281 264.859375 151.253906 266.058594 C 151.269531 266.875 151.289062 267.6875 151.304688 268.5 C 151.347656 270.496094 151.382812 272.492188 151.410156 274.488281 L 154.40625 274.488281 C 155.5 272.355469 156.476562 270.203125 157.40625 267.996094 C 158.300781 267.96875 159.195312 267.949219 160.089844 267.933594 L 161.601562 267.898438 L 162.902344 267.996094 L 163.898438 268.996094 C 164.222656 271.226562 164.210938 273.492188 163.539062 275.652344 C 162.527344 277.800781 161.308594 279.535156 159.402344 280.984375 C 157.105469 282.003906 154.84375 282.65625 152.316406 282.417969 C 150.320312 281.960938 148.710938 281.46875 146.914062 280.484375 C 145.535156 279.105469 144.609375 277.945312 143.855469 276.144531 C 143.339844 274.203125 143.28125 272.382812 143.300781 270.390625 L 143.300781 269.230469 C 143.304688 268.425781 143.308594 267.625 143.3125 266.820312 C 143.324219 265.585938 143.324219 264.351562 143.324219 263.117188 C 143.328125 262.335938 143.328125 261.554688 143.332031 260.773438 L 143.335938 259.652344 C 143.34375 258.769531 143.378906 257.886719 143.417969 257.007812 Z M 531.605469 363.65625 C 534.292969 363.734375 534.292969 363.734375 535.550781 364.46875 C 536.671875 366.441406 536.613281 368.679688 536.613281 370.898438 C 536.605469 371.824219 536.597656 372.75 536.582031 373.675781 C 536.570312 374.605469 536.558594 375.53125 536.550781 376.457031 L 536.535156 377.691406 C 536.585938 378.96875 536.800781 380.144531 537.082031 381.386719 C 538.511719 381.730469 538.511719 381.730469 540.078125 381.886719 L 541.578125 380.890625 C 541.832031 379.941406 541.832031 379.941406 541.859375 378.890625 C 541.925781 377.828125 541.925781 377.828125 542.078125 376.894531 L 543.078125 375.894531 C 544.34375 375.761719 544.34375 375.761719 545.824219 375.769531 L 547.308594 375.761719 L 548.574219 375.894531 L 549.570312 376.894531 C 549.808594 379.566406 549.519531 381.773438 548.597656 384.296875 C 547.734375 386.089844 546.609375 387.609375 545.074219 388.882812 C 542.644531 390.113281 540.378906 390.085938 537.695312 390.03125 C 535.847656 389.859375 534.5 389.53125 532.910156 388.574219 C 531.324219 387.242188 530.425781 385.761719 529.589844 383.886719 C 528.460938 380.058594 528.40625 376.171875 528.402344 372.210938 L 528.367188 370.453125 L 528.359375 368.765625 L 528.347656 367.242188 C 528.589844 365.902344 528.589844 365.902344 529.539062 364.742188 C 530.589844 363.90625 530.589844 363.90625 531.605469 363.65625 M 345.449219 242.320312 L 346.777344 242.332031 L 348.105469 242.320312 L 349.242188 242.519531 C 350.242188 244.019531 350.242188 244.019531 350.394531 245.601562 L 350.429688 247.535156 L 350.457031 248.566406 C 350.484375 249.652344 350.503906 250.738281 350.523438 251.824219 C 350.542969 252.914062 350.566406 254 350.59375 255.089844 C 350.617188 256.078125 350.636719 257.0625 350.652344 258.050781 L 350.742188 259.503906 L 351.242188 260.003906 C 352.988281 260.085938 352.988281 260.085938 354.738281 260.003906 L 355.238281 259.503906 C 355.484375 258.363281 355.6875 257.21875 355.890625 256.070312 L 356.238281 255.007812 C 357.734375 254.007812 357.734375 254.007812 359.703125 253.820312 C 361.121094 253.875 361.730469 254.007812 363.011719 254.695312 C 363.730469 256.007812 363.730469 256.007812 363.824219 257.109375 C 363.710938 259.371094 363.28125 261.199219 362.136719 263.15625 C 360.875 264.957031 359.53125 266.234375 357.734375 267.496094 C 355.175781 268.351562 352.398438 268.242188 349.742188 267.996094 C 348.03125 267.453125 346.820312 266.546875 345.515625 265.304688 C 344.015625 263.65625 343.320312 262.125 342.746094 260.003906 C 342.570312 257.679688 342.582031 255.359375 342.589844 253.03125 C 342.59375 251.914062 342.578125 250.800781 342.566406 249.6875 C 342.566406 248.976562 342.566406 248.265625 342.566406 247.554688 L 342.5625 245.609375 C 342.746094 244.019531 342.746094 244.019531 343.433594 243.058594 C 344.246094 242.519531 344.246094 242.519531 345.449219 242.320312 M 29.527344 230.914062 C 30.511719 231.03125 30.511719 231.03125 32.011719 232.03125 C 32.210938 233.539062 32.210938 233.539062 32.230469 235.460938 L 32.253906 236.488281 C 32.273438 237.574219 32.285156 238.65625 32.292969 239.742188 C 32.304688 240.824219 32.320312 241.90625 32.339844 242.988281 C 32.355469 243.972656 32.367188 244.957031 32.375 245.9375 C 32.390625 247.59375 32.390625 247.59375 33.511719 249.011719 C 34.5 249.195312 34.5 249.195312 35.570312 249.105469 L 37.507812 249.011719 L 37.5625 247.957031 L 37.664062 246.578125 L 37.75 245.207031 L 38.007812 244.019531 C 39.503906 243.019531 39.503906 243.019531 40.582031 242.886719 L 41.753906 242.894531 L 42.925781 242.886719 C 44 243.019531 44 243.019531 45.5 244.019531 C 45.777344 246.664062 45.46875 248.921875 44.558594 251.421875 C 43.589844 253.3125 42.207031 254.753906 40.503906 256.007812 C 38.144531 257.179688 36.039062 257.183594 33.445312 257.125 C 32.011719 257.007812 32.011719 257.007812 30.355469 256.507812 C 28.457031 255.089844 26.917969 253.421875 25.515625 251.511719 C 24.9375 249.769531 24.886719 248.148438 24.824219 246.332031 L 24.785156 245.242188 C 24.761719 244.484375 24.734375 243.726562 24.710938 242.964844 C 24.675781 241.808594 24.628906 240.648438 24.582031 239.492188 C 24.558594 238.753906 24.535156 238.015625 24.511719 237.277344 L 24.46875 236.230469 C 24.429688 234.8125 24.46875 233.664062 24.957031 232.328125 C 26.125 230.667969 27.632812 230.953125 29.527344 230.914062 M 67.480469 312.453125 C 68.558594 312.207031 68.558594 312.207031 69.730469 312.234375 L 70.902344 312.238281 C 71.976562 312.453125 71.976562 312.453125 72.78125 313.007812 C 73.476562 313.953125 73.476562 313.953125 73.683594 315.472656 L 73.714844 317.324219 C 73.75 318.695312 73.773438 320.070312 73.789062 321.445312 C 73.808594 322.488281 73.828125 323.53125 73.851562 324.574219 C 73.871094 325.523438 73.882812 326.46875 73.898438 327.414062 C 73.910156 328.957031 73.910156 328.957031 74.476562 330.4375 L 77.472656 330.4375 L 77.746094 329.503906 C 77.875 329.101562 78 328.699219 78.128906 328.28125 L 78.496094 327.070312 C 79.003906 325.867188 79.457031 325.25 80.472656 324.441406 C 81.90625 324.035156 81.90625 324.035156 83.46875 323.941406 C 85.644531 324.617188 85.644531 324.617188 86.464844 325.441406 C 86.636719 328.175781 86.484375 330.863281 85.464844 333.433594 C 84.242188 335.234375 82.824219 336.480469 80.898438 337.496094 C 78.941406 338.257812 77.226562 338.527344 75.132812 338.367188 C 73.191406 338.046875 71.652344 337.496094 69.980469 336.429688 C 68.644531 335.277344 67.679688 334.308594 66.855469 332.746094 C 65.765625 328.929688 65.875 325.039062 65.859375 321.101562 L 65.828125 319.25 L 65.820312 317.472656 L 65.804688 315.859375 C 65.984375 314.453125 65.984375 314.453125 66.675781 313.28125 Z M 373.722656 236.027344 C 375.265625 235.71875 376.800781 235.761719 378.371094 235.78125 L 379.8125 235.777344 C 381.390625 235.777344 382.964844 235.78125 384.542969 235.796875 L 387.820312 235.796875 C 390.113281 235.800781 392.40625 235.804688 394.695312 235.820312 C 397.640625 235.835938 400.582031 235.839844 403.523438 235.839844 C 405.78125 235.839844 408.039062 235.84375 410.296875 235.851562 C 411.382812 235.855469 412.46875 235.859375 413.554688 235.859375 C 415.066406 235.863281 416.582031 235.871094 418.097656 235.878906 L 419.464844 235.878906 C 420.539062 235.890625 421.609375 235.953125 422.679688 236.027344 L 423.679688 237.023438 C 423.742188 238.835938 423.742188 238.835938 423.679688 240.523438 C 422.28125 241.308594 421.273438 241.644531 419.671875 241.648438 L 418.472656 241.65625 L 417.175781 241.648438 L 415.796875 241.65625 C 414.292969 241.660156 412.789062 241.65625 411.28125 241.652344 L 408.148438 241.65625 C 405.957031 241.65625 403.765625 241.65625 401.578125 241.652344 C 398.765625 241.644531 395.957031 241.648438 393.148438 241.65625 C 390.992188 241.65625 388.832031 241.65625 386.675781 241.65625 C 385.640625 241.652344 384.601562 241.652344 383.566406 241.65625 C 382.121094 241.660156 380.671875 241.65625 379.226562 241.648438 L 377.925781 241.65625 L 376.730469 241.648438 L 375.695312 241.644531 C 374.515625 241.492188 373.726562 241.148438 372.722656 240.519531 C 372.253906 239.335938 372.253906 239.335938 372.222656 238.023438 C 372.679688 236.957031 372.679688 236.957031 373.722656 236.027344 " fill-opacity="1" fill-rule="nonzero"/><path fill="#fefefe" d="M 33.011719 449.824219 L 34.011719 449.824219 C 42.003906 467.867188 42.003906 467.867188 42.003906 471.304688 C 39.53125 471.796875 37.175781 471.878906 34.667969 471.867188 L 33.46875 471.863281 C 30.46875 471.839844 27.5 471.671875 24.519531 471.304688 C 24.847656 468.917969 25.796875 466.941406 26.796875 464.777344 C 29.035156 459.859375 31.039062 454.855469 33.011719 449.824219 M 256.820312 450.324219 L 257.820312 450.324219 C 258.964844 452.988281 260.101562 455.65625 261.234375 458.324219 C 261.621094 459.230469 262.007812 460.136719 262.398438 461.042969 C 262.957031 462.347656 263.511719 463.652344 264.066406 464.957031 L 264.59375 466.183594 L 265.078125 467.335938 L 265.511719 468.34375 C 265.8125 469.304688 265.8125 469.304688 265.8125 471.304688 C 262.429688 471.71875 259.070312 471.855469 255.664062 471.867188 L 254.507812 471.871094 C 252.394531 471.867188 250.410156 471.71875 248.328125 471.304688 C 248.84375 468.296875 250.035156 465.597656 251.167969 462.78125 L 251.808594 461.160156 C 253.296875 457.449219 254.980469 453.875 256.820312 450.324219 M 447.160156 450.824219 L 448.65625 450.824219 C 450.886719 455.394531 452.992188 460 454.902344 464.714844 L 455.433594 466.007812 L 455.917969 467.222656 L 456.347656 468.296875 C 456.652344 469.304688 456.652344 469.304688 456.652344 471.304688 C 450.769531 471.882812 445.054688 471.691406 439.164062 471.304688 C 439.507812 469.058594 440.316406 467.074219 441.195312 464.996094 L 441.65625 463.894531 C 442.15625 462.699219 442.660156 461.507812 443.164062 460.3125 L 444.28125 457.644531 C 445.238281 455.371094 446.199219 453.097656 447.160156 450.824219 " fill-opacity="1" fill-rule="nonzero"/><path fill="#5e4b21" d="M 119 464.246094 L 120.5625 464.242188 L 122.03125 464.242188 L 123.359375 464.246094 C 124.433594 464.308594 124.433594 464.308594 125.433594 464.808594 C 125.445312 465.882812 125.457031 466.953125 125.464844 468.027344 L 125.480469 469.832031 L 125.433594 471.304688 L 124.933594 471.804688 C 123.777344 471.851562 122.617188 471.867188 121.457031 471.871094 L 120.398438 471.871094 C 119.65625 471.871094 118.917969 471.871094 118.175781 471.867188 C 117.042969 471.867188 115.910156 471.867188 114.78125 471.871094 C 114.0625 471.871094 113.339844 471.871094 112.621094 471.871094 L 110.632812 471.867188 C 108.945312 471.804688 108.945312 471.804688 106.949219 471.304688 L 106.949219 464.808594 C 110.976562 464.367188 114.949219 464.253906 119 464.246094 " fill-opacity="1" fill-rule="nonzero"/></g></g></svg>